<svg version="1.0" xmlns="http://www.w3.org/2000/svg" width="352" height="380" viewBox="0 0 264 285"><path d="M135 17.2c-8.3 6.8-15.9 12.9-16.9 13.5-.9.7-6 2.4-11.4 3.7C87.7 39.2 69.4 49.7 55 64c-22.6 22.4-34.7 52.5-33.9 84.5.2 9.5.1 10.3-2.7 15-5.7 9.8-2.7 20.5 7.9 28 4.4 3.1 6.8 6 10.9 12.8 2.9 4.8 8.1 12 11.4 16l6.1 7.3-2.3 4.7c-8.9 17.5-6.2 37.7 5.1 37.7 2 0 4.9-.7 6.4-1.5 4.3-2.2 10.7-9.9 13.2-16l2.2-5.4 5.9 6.4c4.1 4.5 7.9 7.4 12.4 9.6l6.5 3.2 3.7-4.2 3.7-4.2 7 1c3.9.6 9 1.2 11.5 1.4l4.5.3-6.7 3.1c-12.3 5.8-6.9 5.7 6.2-.1 4.9-2.2 10.4-3.8 16-4.5 23-3 44.4-12.8 61.1-28l7-6.4 5.5.6c3.1.3 7.7 1.6 10.2 2.9 4.1 2 4.7 2.7 4.7 5.5 0 1.7.3 2.9.7 2.6.5-.2.8-1.7.8-3.3 0-3.9-5.3-7.4-13.6-9.1l-6.1-1.2 4.9-6.5c24.1-31.9 30.7-72.1 17.6-109-6.2-17.8-13.4-29-28-43.5-5.9-6-10.8-11.1-10.8-11.4 0-.3 6.2-7.1 13.8-15.1 7.5-8.1 12.4-13.8 10.7-12.7-15.2 9.8-21.6 12.3-33.4 13.4-11 .9-19.2.1-31.1-3.3-6.9-2-12.8-2.9-21.7-3.3l-12.3-.6 2.8-5.1c1.5-2.8 6.2-8.6 10.4-12.9 4.2-4.2 7.5-7.7 7.3-7.7-.3 0-7.2 5.5-15.5 12.2zM148.5 34c11.4 1.6 17.3 3.2 15 4-1.6.6-15.2 22.8-16.8 27.5-.3.6-3.7-.2-8.6-1.8-4.5-1.6-8.4-2.7-8.6-2.5-.4.4 4.2 19.3 8.6 34.8 1.6 5.7 1.9 9.3 1.5 15-.6 9.9-2.6 15.2-9.2 24.6-5.2 7.6-5.4 8.1-5.4 14.5v6.7l-6.5 1.2c-3.6.7-6.8 1-7 .8-.3-.2 4.2-7 9.8-15 12.5-17.6 14.8-22.5 15.4-33.3.4-6.6 0-9.5-2.1-16.5-1.4-4.7-4-14.1-5.7-21-2.7-11.2-3-13.6-2.6-23 .3-5.8 1.1-12 1.7-13.8 1.2-3.1 1.3-3.2 7.3-3.2 3.4 0 9.4.5 13.2 1zm-39 3.9c-1.8 1.7-60.1 50.4-64.9 54.3-1.1.9-1.8 1.9-1.5 2.2.3.3 3.8-2.1 7.8-5.4 8-6.5 11.6-7.8 15.7-5.8 7.6 3.7 9.1 10.8 8.6 39.8l-.4 22.6-14.1-.1c-15.9 0-20.1 1-30.2 7.1-3.2 1.9-6.1 3.2-6.4 2.8-1.1-1-.5-20.6.9-28.4 7-41.3 36.7-75.8 76.5-88.6 8.9-2.9 10.6-3 8-.5zm-8.8 22c-1.6 8.1.4 20 6.7 39.1 6.5 20 8 28 7.3 37.4-.5 6.9-3.4 16.4-6 20.1-1.3 1.7-1.6 1.7-6.5-1.1l-5.2-2.9V57.1l2.2-1.5c1.2-.9 2.3-1.5 2.4-1.3.1.1-.3 2.6-.9 5.6zm118.1 10.9c26.6 30.9 35 71.7 22.5 109.7-4.4 13.6-10.4 24.4-20.2 36.7-3.5 4.5-5.2 5.8-7.3 5.8-7.1 0-23.2 4.6-32.8 9.5l-5.5 2.7 5.9-5.8c7.9-7.9 15-17.5 18.9-25.4l3.2-6.5v-24c0-13.2.1-44.9.3-70.3l.2-46.4 4.9 4.1c2.7 2.3 7.2 6.7 9.9 9.9zm-46.2-4.5c5.5 0 11-.3 12.4-.7 1.7-.5-1.5 3.2-9.5 11.3l-11.9 12 2.1 2.3c3.4 3.8 7.3 12.6 10.1 22.7 2.5 9.3 2.6 10.7 3 46.2.4 41.3.2 43-6.7 57.5-5.2 11-11.8 20.8-19.7 29.3-9.9 10.7-11.7 11.5-22.7 10.7-5.1-.4-10.7-1-12.6-1.4l-3.4-.7 9.1-10.5c5-5.8 8.9-10.7 8.6-10.9-.2-.3-2.8 1.9-5.7 4.7-4.4 4.4-5.9 5.2-8.9 5.2-5.2 0-8-1.3-12.3-5.7-7.7-7.9-8-9.3-8-32.6 0-11.4-.2-20.7-.5-20.7s-5.2 6.2-10.8 13.8l-10.4 13.7.4 12.5c.3 6.9.8 13.3 1.3 14.4.7 1.6.5 1.7-1.1.8-1.1-.6-4.8-3.1-8.2-5.6L61 230l3.1-6.3C67 218.1 96 178.9 99.5 176c1.2-1 2.1-.8 4.9.9l3.4 2.1 8.6-3.9 8.6-4v10.3c0 5.7.3 13.8.6 18l.7 7.7 10.1-.3 10.1-.3.3-22.8.2-22.7 10.3-5.1c11-5.5 11.3-5.7 10.6-6.3-.4-.4-3.3.1-18.1 2.8l-2.8.6v-43.5c0-49.4-1-44.7 9.6-43.8 3.4.3 10.6.5 16 .6zM68 158.9c8.5 2.2 29 11.5 29 13.1 0 2.1-2.2 1.5-11.5-3.2l-10-5-.3 18.2-.2 18.2-4.4 5.2c-2.4 2.8-6.6 8.4-9.4 12.4l-5 7.2-4.7-5.2c-6.2-6.9-15.5-20.7-15.5-23.1 0-.2 2-.3 4.4-.3 2.5.1 5-.4 5.5-.9.7-.7-.2-.9-2.9-.7-7.6.7-8.5 0-12-9-1.8-4.5-3.9-11.5-4.8-15.5-1.9-8.8-1.5-9.5 7.2-12.3 7.9-2.6 22.4-2.2 34.6.9zm-44.6 10.3c.4 2.4 2 8.3 3.7 13.2 1.6 4.9 2.8 9 2.6 9.2-.2.2-1.9-1-3.9-2.6-4.3-3.5-7.8-10.3-7.8-14.9 0-3.1 2.7-9.1 4.1-9.1.3 0 .9 1.9 1.3 4.2zM210 229c-12.5 11-28.4 19.8-44 24.3-9.5 2.7-20.1 4.4-18.5 3 2.4-2.3 21.6-15.4 27.2-18.7 11-6.4 28.5-12.3 37.3-12.5 2.3 0 2.2.3-2 3.9zM71.8 241c3.3 2.1 5.2 4 5.2 5.3 0 5.4-11.4 20.7-15.4 20.7-3.8 0-7.6-6.8-7.6-13.8 0-4.1 2.6-14.5 4.6-18.5l1.5-2.8 3.3 2.9c1.8 1.5 5.6 4.3 8.4 6.2z"/></svg>