<svg version="1.0" xmlns="http://www.w3.org/2000/svg" width="85.333" height="85.333" viewBox="0 0 64 64"><path d="M30.1 28.2c-.5 1.3-3 7.7-5.6 14.3-4 10.4-4.5 12.4-3.7 15.3l1 3.2h-7.1c-7.9 0-10.3-.9-9.3-3.5.5-1.4 1.5-1.5 6.1-1 6.4.8 7.6-.8 1.8-2.4-5.5-1.6-7.8-1.3-9.8.9-1.5 1.6-1.7 2.6-.9 4.8l.9 2.7 13.3.3c13 .3 16.2-.5 10.3-2.6-4.8-1.7-4.8-4.2.4-17.7l4.8-12.4 2.8 1.4c1.5.8 4.2 1.5 5.9 1.5 1.7 0 4.4-.7 5.9-1.5l2.8-1.4 4.8 12.5c4 10.4 4.6 12.9 3.7 14.8-1.5 3.4-6.8 4.4-9.2 1.8-1.5-1.6-3.2-2-8-2-6.2 0-9 1.4-9 4.4 0 1.9 2.6 1.8 3.4-.1.7-2 2.6-1.9 4.2.2 1.3 1.7 1.5 1.7 2.8 0 1.6-2.1 3.5-2.2 4.2-.2.8 2 9.2 2 12.1 0 4.1-2.8 3.8-5.9-1.8-20.8C54 33 51 26.5 50.2 26.3c-.7-.3-2.3.4-3.6 1.6-2.9 2.8-8.6 2.8-11.1.1-2.4-2.6-4.3-2.5-5.4.2z"/><path d="M35 42c0 .5.5 1 1 1 .6 0 1-.5 1-1 0-.6-.4-1-1-1-.5 0-1 .4-1 1zM45 42c0 .5.5 1 1 1 .6 0 1-.5 1-1 0-.6-.4-1-1-1-.5 0-1 .4-1 1z"/></svg>